<svg width="135" height="124" viewBox="0 0 135 124" fill="none" xmlns="http://www.w3.org/2000/svg">
<path d="M0 20.044C0 8.974 8.97402 0 20.044 0C31.114 0 40.0881 8.97402 40.0881 20.044V123.954H0V20.044Z" fill="#9696FF"/>
<path d="M45.7983 64.421C45.7983 53.351 54.7724 44.377 65.8424 44.377C76.9124 44.377 85.8864 53.351 85.8864 64.421V123.954H45.7983V64.421Z" fill="#9696FF"/>
<path d="M94.1694 20.044C94.1694 8.974 103.143 0 114.213 0C125.283 0 134.257 8.97402 134.257 20.044V123.954H94.1694V20.044Z" fill="#9696FF"/>
<ellipse cx="20.044" cy="24.4987" rx="20.044" ry="24.4987" fill="#ACA9F1"/>
<ellipse cx="65.8424" cy="68.8756" rx="20.044" ry="24.4987" fill="#ACA9F1"/>
<ellipse cx="114.213" cy="24.4987" rx="20.044" ry="24.4987" fill="#ACA9F1"/>
</svg>
