<svg width="135" height="124" viewBox="0 0 135 124" fill="none" xmlns="http://www.w3.org/2000/svg">
<ellipse cx="95.3495" cy="36.4095" rx="10.6674" ry="10.0228" fill="#6439FF"/>
<ellipse cx="94.9179" cy="88.3631" rx="10.6674" ry="10.0228" fill="#6439FF"/>
<ellipse cx="123.462" cy="10.0228" rx="10.6674" ry="10.0228" fill="#9696FF"/>
<ellipse cx="95.5067" cy="62.7948" rx="10.6674" ry="10.0228" fill="#9696FF"/>
<ellipse cx="38.7509" cy="113.932" rx="10.6674" ry="10.0228" fill="#6439FF"/>
<ellipse cx="123.59" cy="62.7948" rx="10.6674" ry="10.0228" fill="#9696FF"/>
<ellipse cx="123.001" cy="88.3631" rx="10.6674" ry="10.0228" fill="#6439FF"/>
<ellipse cx="66.8344" cy="113.932" rx="10.6674" ry="10.0228" fill="#9696FF"/>
<ellipse cx="94.9179" cy="113.932" rx="10.6674" ry="10.0228" fill="#6439FF"/>
<ellipse cx="67.4232" cy="62.7948" rx="10.6674" ry="10.0228" fill="#6439FF"/>
<ellipse cx="38.7509" cy="88.3631" rx="10.6674" ry="10.0228" fill="#6439FF"/>
<ellipse cx="10.6674" cy="113.932" rx="10.6674" ry="10.0228" fill="#9696FF"/>
<ellipse cx="123.001" cy="113.932" rx="10.6674" ry="10.0228" fill="#9696FF"/>
<ellipse cx="66.8344" cy="88.3631" rx="10.6674" ry="10.0228" fill="#9696FF"/>
<ellipse cx="123.433" cy="36.4095" rx="10.6674" ry="10.0228" fill="#6439FF"/>
</svg>
