<svg width="16" height="16" viewBox="0 0 16 16" fill="none" xmlns="http://www.w3.org/2000/svg">
<path d="M0.561023 3.16645C0.186336 2.81384 0 2.37737 0 1.85805C0 1.33872 0.187332 0.88305 0.561023 0.529426C0.935711 0.176811 1.41802 0 2.00895 0C2.59989 0 3.06327 0.176811 3.43696 0.529426C3.81165 0.88204 3.99798 1.32559 3.99798 1.85805C3.99798 2.3905 3.81065 2.81384 3.43696 3.16645C3.06227 3.51907 2.58693 3.69588 2.00895 3.69588C1.43098 3.69588 0.935711 3.51907 0.561023 3.16645ZM3.6831 5.18919L3.6831 16H0.313891L0.313891 5.18919H3.6831Z" fill="#FEFFFC"/>
<path d="M14.899 6.25686C15.6334 7.06515 16.0001 8.17453 16.0001 9.587V15.8088H12.8003V10.0255C12.8003 9.31319 12.618 8.75951 12.2542 8.36547C11.8905 7.97144 11.4002 7.77341 10.7864 7.77341C10.1725 7.77341 9.68223 7.97042 9.3185 8.36547C8.95478 8.75951 8.77242 9.31319 8.77242 10.0255V15.8088H5.55371L5.55371 5.1586H8.77242V6.57108C9.09828 6.10025 9.53776 5.72845 10.0898 5.45464C10.6419 5.18084 11.2627 5.04443 11.9533 5.04443C13.183 5.04443 14.1655 5.44858 14.899 6.25585V6.25686Z" fill="#FEFFFC"/>
</svg>
