<svg width="867" height="561" viewBox="0 0 867 561" fill="none" xmlns="http://www.w3.org/2000/svg">
<path d="M260.676 118.447C244.187 95.1302 211.771 40.5606 229.618 11.9681C233.139 6.23594 238.828 2.16953 245.391 0.690746C267.369 -4.1017 284.902 16.9178 288.322 36.6999C293.302 65.5051 282.699 94.3903 266.86 118.016C271.341 122.316 279.006 133.059 284.341 138.73C300.473 155.875 317.957 170.438 337.827 183.051C372.963 127.209 444.705 48.7562 519.429 79.831C531.834 84.9884 542.879 97.7673 548.28 109.749C548.983 111.304 548.8 113.666 549.171 115.341C560.488 141.501 545.144 171.074 524.38 187.528C479.927 224.226 416.803 225.709 365.414 203.595C356.651 199.823 348.154 195.316 339.602 190.941C329.335 209.227 320.748 225.633 313.34 245.163C282.515 326.433 300.451 410.722 361.697 472.605C402.251 513.585 452.931 540.189 510.139 550.006C512.474 550.407 514.883 551.702 517.277 551.727C521.115 551.831 525.206 552.078 529 552.588C575.524 558.79 623.123 552.054 667.609 537.869C669.924 537.132 672.922 536.45 675.167 535.99C677.65 535.475 678.011 534.862 679.871 532.913C687.84 531.474 714.673 518.244 722.706 513.803C767.797 488.921 807.649 454.577 834.487 410.331C849.732 385.198 862.765 358.804 860.347 328.696C859.921 323.38 856.929 310.707 858.289 306.019L858.976 306.19C861.108 309.352 862.795 316.148 863.789 320.128C871.491 350.577 859.436 379.886 844.716 406.078C830.273 431.787 812.946 452.748 791.291 472.62C750.173 510.118 700.408 536.845 646.439 550.421C562.55 572.198 467.611 560.204 396.181 509.718C349.407 476.66 313.379 431.421 298.943 375.336C285.592 323.466 294.269 271.65 315.598 223.293C320.967 211.041 327.931 199.217 334.728 187.752C330.981 184.832 327.064 182.877 322.308 179.373C306.954 168.063 290.498 154.551 278.273 139.802C278.254 139.78 277.67 136.639 277.619 136.358C276.368 135.125 274.719 134.866 272.972 134.355C269.752 130.584 266.601 126.771 264.082 122.49C221.859 178.693 146.701 213.947 77.6933 185.638C25.4441 164.205 -5.92077 104.367 0.935282 49.2567C2.44341 37.1307 5.52841 22.2538 10.312 10.8518C11.3759 10.0422 11.827 9.5684 13.0844 9.1945L14.0004 10.2198C7.81705 27.3158 4.69545 40.8786 3.74428 59.3575C3.37727 66.4888 4.1103 72.3762 3.57363 80.0051C6.27628 85.1912 6.87132 93.2419 8.87308 99.7985C15.5323 123.647 28.7206 143.904 46.4946 160.405C84.3653 195.56 136.283 197.113 182.815 180.472C182.799 180.478 183.866 181.476 185.183 181.433C189.169 174.843 193.28 175.796 199.425 172.041C206.484 167.728 216.362 162.884 222.69 157.743C235.56 147.285 251.612 132.425 260.676 118.447ZM411.233 211.21C448.019 216.077 483.993 209.616 514.769 187.98C543.171 168.018 559.983 130.746 536.068 100.143C526.447 88.0464 512.37 80.3216 496.997 78.7043C493.421 78.2968 489.271 78.3552 485.606 78.1939C480.61 78.5377 474.62 78.7756 469.822 79.7622C416.921 90.6419 376.601 136.178 347.727 179.077C346.147 181.424 344.574 183.773 342.948 186.103C360.579 196.55 390.499 209.494 411.233 211.21ZM268.558 105.636C278.165 90.861 284.66 67.562 285.053 50.0614C285.521 29.2066 271.064 0.325252 246.361 5.63948C244.864 5.95799 243.971 6.53318 242.495 5.90309C242.155 5.11028 242.218 4.96883 241.557 4.41244L241.178 4.52025C240.707 5.60239 240.82 5.72751 240.95 6.88581C230.959 18.0984 229.746 19.7033 230.219 36.2449C230.727 39.9671 230.511 45.9806 231.568 49.46C237.429 68.7584 245.756 87.0107 256.957 103.799C258.366 105.912 261.829 112.548 264.077 112.838C265.826 110.906 267.275 107.968 268.558 105.636Z" fill="#FDF8F5"/>
</svg>
