<?xml version="1.0" encoding="UTF-8"?>
<svg id="Capa_1" data-name="Capa 1" xmlns="http://www.w3.org/2000/svg" viewBox="0 0 213.08 121.98">
  <defs>
    <style>
      .cls-1 {
        fill: none;
        stroke: #fdf9f6;
        stroke-linecap: round;
        stroke-miterlimit: 10;
        stroke-width: 2px;
      }
    </style>
  </defs>
  <path class="cls-1" d="m9,6.19C.36,13.68.65,28.61,8.6,36.83c7.95,8.22,21.55,9.5,31.73,4.3s16.89-15.91,18.9-27.16c.41-2.31.57-4.94-.93-6.75-2.15-2.6-6.47-1.91-9.16.13-6.24,4.74-6.78,14.52-2.89,21.32s11.08,11.05,18.39,13.89c19.95,7.75,46.19,5.15,57.97-12.73,4.26-6.47,5.47-16.56-.95-20.9-6.12-4.14-14.5-.05-19.75,5.14-13.28,13.15-18.41,33.52-14.37,51.78,4.03,18.25,16.62,34.12,32.74,43.59,19.7,11.57,45.72,13.42,65.26,1.59,19.55-11.83,29.99-38.3,20.79-59.22"/>
</svg>